<mxfile host="65bd71144e">
    <diagram id="t9Q3tQ73G-qGFrrk_Bua" name="Page-1">
        <mxGraphModel dx="1517" dy="1553" grid="1" gridSize="10" guides="1" tooltips="1" connect="1" arrows="1" fold="1" page="1" pageScale="1" pageWidth="827" pageHeight="1169" math="0" shadow="0">
            <root>
                <mxCell id="0"/>
                <mxCell id="1" parent="0"/>
                <mxCell id="2" value="" style="rounded=0;whiteSpace=wrap;html=1;shadow=0;glass=0;labelBorderColor=default;sketch=0;strokeColor=#d79b00;strokeWidth=3;fillColor=#ffe6cc;" parent="1" vertex="1">
                    <mxGeometry x="80" y="20" width="700" height="1150" as="geometry"/>
                </mxCell>
                <mxCell id="3" value="Login sequence diagramme&amp;nbsp;&amp;nbsp;" style="text;html=1;strokeColor=none;fillColor=none;align=center;verticalAlign=middle;whiteSpace=wrap;rounded=0;" parent="1" vertex="1">
                    <mxGeometry x="322" y="20" width="246" height="30" as="geometry"/>
                </mxCell>
                <mxCell id="4" value="" style="shape=umlLifeline;perimeter=lifelinePerimeter;whiteSpace=wrap;html=1;container=1;dropTarget=0;collapsible=0;recursiveResize=0;outlineConnect=0;portConstraint=eastwest;newEdgeStyle={&quot;edgeStyle&quot;:&quot;elbowEdgeStyle&quot;,&quot;elbow&quot;:&quot;vertical&quot;,&quot;curved&quot;:0,&quot;rounded&quot;:0};participant=umlActor;" parent="1" vertex="1">
                    <mxGeometry x="230" y="110" width="20" height="1010" as="geometry"/>
                </mxCell>
                <mxCell id="5" value="" style="html=1;points=[];perimeter=orthogonalPerimeter;outlineConnect=0;targetShapes=umlLifeline;portConstraint=eastwest;newEdgeStyle={&quot;edgeStyle&quot;:&quot;elbowEdgeStyle&quot;,&quot;elbow&quot;:&quot;vertical&quot;,&quot;curved&quot;:0,&quot;rounded&quot;:0};rounded=0;shadow=0;glass=0;sketch=0;strokeColor=#000000;fontColor=#000000;fillColor=default;gradientColor=#FFFFFF;" parent="4" vertex="1">
                    <mxGeometry x="5" y="70" width="10" height="860" as="geometry"/>
                </mxCell>
                <mxCell id="6" value="Authcontroller" style="shape=umlLifeline;perimeter=lifelinePerimeter;whiteSpace=wrap;html=1;container=1;dropTarget=0;collapsible=0;recursiveResize=0;outlineConnect=0;portConstraint=eastwest;newEdgeStyle={&quot;edgeStyle&quot;:&quot;elbowEdgeStyle&quot;,&quot;elbow&quot;:&quot;vertical&quot;,&quot;curved&quot;:0,&quot;rounded&quot;:0};participant=umlControl;size=40;" parent="1" vertex="1">
                    <mxGeometry x="400" y="100" width="90" height="1020" as="geometry"/>
                </mxCell>
                <mxCell id="7" value="" style="html=1;points=[];perimeter=orthogonalPerimeter;outlineConnect=0;targetShapes=umlLifeline;portConstraint=eastwest;newEdgeStyle={&quot;edgeStyle&quot;:&quot;elbowEdgeStyle&quot;,&quot;elbow&quot;:&quot;vertical&quot;,&quot;curved&quot;:0,&quot;rounded&quot;:0};" parent="6" vertex="1">
                    <mxGeometry x="40" y="80" width="10" height="850" as="geometry"/>
                </mxCell>
                <mxCell id="8" value="User" style="shape=umlLifeline;perimeter=lifelinePerimeter;whiteSpace=wrap;html=1;container=1;dropTarget=0;collapsible=0;recursiveResize=0;outlineConnect=0;portConstraint=eastwest;newEdgeStyle={&quot;edgeStyle&quot;:&quot;elbowEdgeStyle&quot;,&quot;elbow&quot;:&quot;vertical&quot;,&quot;curved&quot;:0,&quot;rounded&quot;:0};participant=umlEntity;" parent="1" vertex="1">
                    <mxGeometry x="620" y="100" width="40" height="1020" as="geometry"/>
                </mxCell>
                <mxCell id="9" value="" style="html=1;points=[];perimeter=orthogonalPerimeter;outlineConnect=0;targetShapes=umlLifeline;portConstraint=eastwest;newEdgeStyle={&quot;edgeStyle&quot;:&quot;elbowEdgeStyle&quot;,&quot;elbow&quot;:&quot;vertical&quot;,&quot;curved&quot;:0,&quot;rounded&quot;:0};" parent="8" vertex="1">
                    <mxGeometry x="16" y="110" width="10" height="60" as="geometry"/>
                </mxCell>
                <mxCell id="10" value="cheking" style="html=1;align=left;spacingLeft=2;endArrow=block;rounded=0;edgeStyle=orthogonalEdgeStyle;curved=0;rounded=0;" parent="8" target="9" edge="1">
                    <mxGeometry relative="1" as="geometry">
                        <mxPoint x="25" y="110" as="sourcePoint"/>
                        <Array as="points">
                            <mxPoint x="55" y="140"/>
                        </Array>
                    </mxGeometry>
                </mxCell>
                <mxCell id="11" value="login informations" style="html=1;verticalAlign=bottom;startArrow=oval;endArrow=block;startSize=8;edgeStyle=elbowEdgeStyle;elbow=vertical;curved=0;rounded=0;" parent="1" target="7" edge="1">
                    <mxGeometry relative="1" as="geometry">
                        <mxPoint x="240" y="180" as="sourcePoint"/>
                    </mxGeometry>
                </mxCell>
                <mxCell id="12" value="check login info" style="html=1;verticalAlign=bottom;startArrow=oval;startFill=1;endArrow=block;startSize=8;edgeStyle=elbowEdgeStyle;elbow=vertical;curved=0;rounded=0;" parent="1" edge="1">
                    <mxGeometry width="60" relative="1" as="geometry">
                        <mxPoint x="450" y="213" as="sourcePoint"/>
                        <mxPoint x="630" y="213" as="targetPoint"/>
                    </mxGeometry>
                </mxCell>
                <mxCell id="13" value="return cheking results" style="html=1;verticalAlign=bottom;endArrow=open;dashed=1;endSize=8;edgeStyle=elbowEdgeStyle;elbow=vertical;curved=0;rounded=0;" parent="1" source="9" edge="1">
                    <mxGeometry relative="1" as="geometry">
                        <mxPoint x="630" y="260" as="sourcePoint"/>
                        <mxPoint x="450" y="260" as="targetPoint"/>
                    </mxGeometry>
                </mxCell>
                <mxCell id="14" value="alternative" style="shape=umlFrame;whiteSpace=wrap;html=1;pointerEvents=0;strokeColor=#000000;strokeWidth=3;" parent="1" vertex="1">
                    <mxGeometry x="130" y="270" width="640" height="850" as="geometry"/>
                </mxCell>
                <mxCell id="15" value="" style="line;strokeWidth=3;fillColor=#AC6868;align=left;verticalAlign=middle;spacingTop=-1;spacingLeft=3;spacingRight=3;rotatable=0;labelPosition=right;points=[];portConstraint=eastwest;strokeColor=inherit;fontColor=#AC6868;gradientColor=#AC6868;" parent="1" vertex="1">
                    <mxGeometry x="130" y="669" width="640" height="8" as="geometry"/>
                </mxCell>
                <mxCell id="16" value="check email confiramtion" style="html=1;verticalAlign=bottom;startArrow=oval;endArrow=block;startSize=8;edgeStyle=elbowEdgeStyle;elbow=vertical;curved=0;rounded=0;" parent="1" edge="1">
                    <mxGeometry x="-0.0244" y="10" relative="1" as="geometry">
                        <mxPoint x="450" y="300" as="sourcePoint"/>
                        <mxPoint x="635" y="300.47368421052636" as="targetPoint"/>
                        <mxPoint as="offset"/>
                    </mxGeometry>
                </mxCell>
                <mxCell id="17" value="" style="html=1;points=[];perimeter=orthogonalPerimeter;outlineConnect=0;targetShapes=umlLifeline;portConstraint=eastwest;newEdgeStyle={&quot;edgeStyle&quot;:&quot;elbowEdgeStyle&quot;,&quot;elbow&quot;:&quot;vertical&quot;,&quot;curved&quot;:0,&quot;rounded&quot;:0};rounded=0;shadow=0;glass=0;sketch=0;strokeColor=#000000;fontColor=#AC6868;fillColor=default;gradientColor=#FFFFFF;" parent="1" vertex="1">
                    <mxGeometry x="635" y="300" width="10" height="150" as="geometry"/>
                </mxCell>
                <mxCell id="18" value="&lt;font color=&quot;#000000&quot;&gt;cheking&lt;/font&gt;" style="html=1;align=left;spacingLeft=2;endArrow=block;rounded=0;edgeStyle=orthogonalEdgeStyle;curved=0;rounded=0;fontColor=#AC6868;" parent="1" target="17" edge="1">
                    <mxGeometry relative="1" as="geometry">
                        <mxPoint x="640" y="300" as="sourcePoint"/>
                        <Array as="points">
                            <mxPoint x="670" y="300"/>
                            <mxPoint x="670" y="330"/>
                        </Array>
                    </mxGeometry>
                </mxCell>
                <mxCell id="19" value="alternative" style="shape=umlFrame;whiteSpace=wrap;html=1;pointerEvents=0;strokeColor=#000000;strokeWidth=2;" parent="1" vertex="1">
                    <mxGeometry x="170" y="340" width="540" height="290" as="geometry"/>
                </mxCell>
                <mxCell id="20" value="confirmed&amp;nbsp;" style="html=1;verticalAlign=bottom;endArrow=open;dashed=1;endSize=8;edgeStyle=elbowEdgeStyle;elbow=vertical;curved=0;rounded=0;fontColor=#000000;" parent="1" edge="1">
                    <mxGeometry x="0.0009" relative="1" as="geometry">
                        <mxPoint x="635" y="363" as="sourcePoint"/>
                        <mxPoint x="450" y="363" as="targetPoint"/>
                        <mxPoint as="offset"/>
                    </mxGeometry>
                </mxCell>
                <mxCell id="21" value="[email is confirmed ]" style="text;align=center;fontStyle=1;verticalAlign=middle;spacingLeft=3;spacingRight=3;rotatable=0;points=[[0,0.5],[1,0.5]];portConstraint=eastwest;rounded=0;shadow=0;glass=0;fontColor=#000000;" parent="1" vertex="1">
                    <mxGeometry x="239" y="340" width="220" height="26" as="geometry"/>
                </mxCell>
                <mxCell id="22" value="" style="line;strokeWidth=2;fillColor=#AC6868;align=left;verticalAlign=middle;spacingTop=-1;spacingLeft=3;spacingRight=3;rotatable=0;labelPosition=right;points=[];portConstraint=eastwest;strokeColor=inherit;fontColor=#AC6868;gradientColor=#AC6868;" parent="1" vertex="1">
                    <mxGeometry x="170" y="410" width="540" height="8" as="geometry"/>
                </mxCell>
                <mxCell id="23" value="send tocken&amp;nbsp;" style="html=1;verticalAlign=bottom;endArrow=open;dashed=1;endSize=8;edgeStyle=elbowEdgeStyle;elbow=vertical;curved=0;rounded=0;fontColor=#000000;" parent="1" target="5" edge="1">
                    <mxGeometry relative="1" as="geometry">
                        <mxPoint x="440" y="384.57" as="sourcePoint"/>
                        <mxPoint x="250" y="385" as="targetPoint"/>
                    </mxGeometry>
                </mxCell>
                <mxCell id="24" value="not confirme&amp;nbsp;" style="html=1;verticalAlign=bottom;endArrow=open;dashed=1;endSize=8;edgeStyle=elbowEdgeStyle;elbow=vertical;curved=0;rounded=0;fontColor=#000000;" parent="1" edge="1">
                    <mxGeometry x="0.0009" relative="1" as="geometry">
                        <mxPoint x="635" y="440" as="sourcePoint"/>
                        <mxPoint x="450" y="440" as="targetPoint"/>
                        <mxPoint as="offset"/>
                    </mxGeometry>
                </mxCell>
                <mxCell id="25" value="Usercontroller" style="shape=umlLifeline;perimeter=lifelinePerimeter;whiteSpace=wrap;html=1;container=1;dropTarget=0;collapsible=0;recursiveResize=0;outlineConnect=0;portConstraint=eastwest;newEdgeStyle={&quot;edgeStyle&quot;:&quot;elbowEdgeStyle&quot;,&quot;elbow&quot;:&quot;vertical&quot;,&quot;curved&quot;:0,&quot;rounded&quot;:0};participant=umlControl;size=40;" parent="1" vertex="1">
                    <mxGeometry x="294" y="100" width="90" height="460" as="geometry"/>
                </mxCell>
                <mxCell id="26" value="" style="html=1;points=[];perimeter=orthogonalPerimeter;outlineConnect=0;targetShapes=umlLifeline;portConstraint=eastwest;newEdgeStyle={&quot;edgeStyle&quot;:&quot;elbowEdgeStyle&quot;,&quot;elbow&quot;:&quot;vertical&quot;,&quot;curved&quot;:0,&quot;rounded&quot;:0};rounded=0;shadow=0;glass=0;sketch=0;strokeColor=#000000;fontColor=#000000;fillColor=default;gradientColor=#FFFFFF;" parent="25" vertex="1">
                    <mxGeometry x="40" y="370" width="10" height="80" as="geometry"/>
                </mxCell>
                <mxCell id="27" value="send email confirmation" style="html=1;verticalAlign=bottom;endArrow=block;edgeStyle=elbowEdgeStyle;elbow=vertical;curved=0;rounded=0;fontColor=#000000;" parent="25" target="26" edge="1">
                    <mxGeometry relative="1" as="geometry">
                        <mxPoint x="120" y="370" as="sourcePoint"/>
                        <Array as="points">
                            <mxPoint x="146" y="370"/>
                        </Array>
                    </mxGeometry>
                </mxCell>
                <mxCell id="28" value="email sent" style="html=1;verticalAlign=bottom;endArrow=open;dashed=1;endSize=8;edgeStyle=elbowEdgeStyle;elbow=vertical;curved=0;rounded=0;fontColor=#000000;" parent="25" source="26" edge="1">
                    <mxGeometry relative="1" as="geometry">
                        <mxPoint x="146" y="445" as="targetPoint"/>
                    </mxGeometry>
                </mxCell>
                <mxCell id="29" value="your email is not confirme&lt;br&gt;&amp;nbsp;check your email" style="html=1;verticalAlign=bottom;endArrow=open;dashed=1;endSize=8;edgeStyle=elbowEdgeStyle;elbow=vertical;curved=0;rounded=0;fontColor=#000000;startArrow=none;" parent="1" edge="1">
                    <mxGeometry x="0.0526" relative="1" as="geometry">
                        <mxPoint x="439.5" y="595.9999999999999" as="sourcePoint"/>
                        <mxPoint x="245" y="596" as="targetPoint"/>
                        <Array as="points">
                            <mxPoint x="265" y="596"/>
                            <mxPoint x="405" y="650"/>
                        </Array>
                        <mxPoint as="offset"/>
                    </mxGeometry>
                </mxCell>
                <mxCell id="30" value="[Login ID and password match ]" style="text;align=center;fontStyle=1;verticalAlign=middle;spacingLeft=3;spacingRight=3;rotatable=0;points=[[0,0.5],[1,0.5]];portConstraint=eastwest;rounded=0;shadow=0;glass=0;fontColor=#000000;" parent="1" vertex="1">
                    <mxGeometry x="239" y="290" width="220" height="26" as="geometry"/>
                </mxCell>
                <mxCell id="31" value="[email is not confirmed ]" style="text;align=center;fontStyle=1;verticalAlign=middle;spacingLeft=3;spacingRight=3;rotatable=0;points=[[0,0.5],[1,0.5]];portConstraint=eastwest;rounded=0;shadow=0;glass=0;fontColor=#000000;" parent="1" vertex="1">
                    <mxGeometry x="239" y="424" width="220" height="26" as="geometry"/>
                </mxCell>
                <mxCell id="32" value="[Login ID and password not match ]" style="text;align=center;fontStyle=1;verticalAlign=middle;spacingLeft=3;spacingRight=3;rotatable=0;points=[[0,0.5],[1,0.5]];portConstraint=eastwest;rounded=0;shadow=0;glass=0;fontColor=#000000;" parent="1" vertex="1">
                    <mxGeometry x="200" y="930" width="220" height="26" as="geometry"/>
                </mxCell>
                <mxCell id="33" value="wrong login info" style="html=1;verticalAlign=bottom;endArrow=open;dashed=1;endSize=8;edgeStyle=elbowEdgeStyle;elbow=vertical;curved=0;rounded=0;fontColor=#000000;" parent="1" edge="1">
                    <mxGeometry relative="1" as="geometry">
                        <mxPoint x="440" y="1020" as="sourcePoint"/>
                        <mxPoint x="250" y="1020" as="targetPoint"/>
                    </mxGeometry>
                </mxCell>
            </root>
        </mxGraphModel>
    </diagram>
</mxfile>
